<svg xmlns="http://www.w3.org/2000/svg" viewBox="0 0 512.001 380.146">
  <defs>
    <style>
      .cls-1 {
        fill: #fff;
      }

      .cls-2 {
        fill: #e4866f;
      }

      .cls-3 {
        fill: #ffc666;
      }

      .cls-4 {
        fill: #ff6dca;
      }
    </style>
  </defs>
  <g id="cake-slice" transform="translate(0.002 -0.498)">
    <g id="Group_5" data-name="Group 5">
      <path id="Path_37" data-name="Path 37" class="cls-1" d="M500.781,174.121a105.963,105.963,0,0,1-3.027,12.984,22.32,22.32,0,0,1-18.137,15.68l-98.18,14.465a91.55,91.55,0,0,1,11.973,45.266v11.668l100.922-14.016,6.457-86.051Zm0,0"/>
      <path id="Path_38" data-name="Path 38" class="cls-1" d="M347.4,279.949a52.67,52.67,0,0,0-25.992-45.414,37.818,37.818,0,0,0-24.66-4.8L24.438,269.863a12.035,12.035,0,0,1-11.883-4.82l29.5,57.941L347.4,280.574Zm0,0"/>
      <path id="Path_39" data-name="Path 39" class="cls-1" d="M475.645,322.531,84.188,370.469a24.269,24.269,0,0,1-8.859-.562,24.269,24.269,0,0,0,8.859.563l391.457-47.937A17.358,17.358,0,0,0,488.7,313.75,17.358,17.358,0,0,1,475.645,322.531Zm0,0"/>
      <path id="Path_40" data-name="Path 40" class="cls-1" d="M10.242,260.5l.438.863c-.094-.3-.18-.594-.254-.895Zm0,0"/>
    </g>
    <path id="Path_41" data-name="Path 41" class="cls-2" d="M393.41,282.2a23,23,0,0,1-23.844,22.984c-12.465-.441-22.164-11.062-22.164-23.539v-1.07L42.059,322.984l17.508,34.383a24.393,24.393,0,0,0,24.625,13.1l391.453-47.934A17.372,17.372,0,0,0,488.7,313.75c.238-.43.461-.867.664-1.32a17.334,17.334,0,0,0,1.48-5.832l3.484-46.43L393.41,274.184Zm0,0"/>
    <path id="Path_42" data-name="Path 42" class="cls-3" d="M24.438,269.863l272.309-40.129a37.809,37.809,0,0,1,24.66,4.8,52.665,52.665,0,0,1,26,45.414v1.7c0,12.473,9.7,23.094,22.164,23.539A23.007,23.007,0,0,0,393.41,282.2V262.516a91.525,91.525,0,0,0-11.973-45.262l98.18-14.469a22.314,22.314,0,0,0,18.137-15.68,105.631,105.631,0,0,0,3.027-12.984c9.7-58.465-40.684-88.434-74.8-101.8a65.665,65.665,0,0,0-52.469,2.012L333.164,93.785c.238,1.348.43,2.711.551,4.1a46.6,46.6,0,0,1-81.375,34.859L17.152,246.117a12.159,12.159,0,0,0-6.727,14.348c.074.3.16.6.254.895a13.343,13.343,0,0,0,1.879,3.684A12.025,12.025,0,0,0,24.438,269.863Zm0,0"/>
    <path id="Path_43" data-name="Path 43" class="cls-4" d="M291.316,148.344a46.6,46.6,0,0,0,42.4-50.457c-.121-1.391-.312-2.754-.551-4.1a46.6,46.6,0,1,0-41.848,54.559Zm0,0"/>
    <path id="Path_44" data-name="Path 44" d="M510.734,175.207c7.836-48.8-20.941-88.633-81.094-112.2a75.894,75.894,0,0,0-60.465,2.313L339.355,79.7a56.671,56.671,0,0,0-43.77-33.777c2.242-10.187,7.488-20.645,18.914-26.531a10,10,0,0,0-9.156-17.781C285.086,12.047,277.531,30.516,275.1,46.66a56.606,56.606,0,0,0-37.629,82.148L12.813,237.109A22.006,22.006,0,0,0,.246,260.477a10.036,10.036,0,0,0,1.078,4.539l.168.324a23.326,23.326,0,0,0,2.43,4.781l29.227,57.395v0l5.227,10.266L50.656,361.9a33.956,33.956,0,0,0,3.68,5.711,34.486,34.486,0,0,0,26.93,13.031,33.657,33.657,0,0,0,4.141-.254L182.7,368.48l294.164-36.02a27.17,27.17,0,0,0,7.215-1.93,27.549,27.549,0,0,0,16.75-23.187ZM396.293,225.172,481.07,212.68c.707-.105,1.4-.238,2.09-.387.207-.043.41-.094.613-.145.5-.117.984-.242,1.469-.383.219-.062.434-.125.648-.191.523-.16,1.039-.336,1.547-.523.148-.055.3-.1.445-.156.039-.02.082-.031.121-.047l-3.039,40.523L403.406,262.7v-.184A101.66,101.66,0,0,0,396.293,225.172ZM274.34,67.691a83.058,83.058,0,0,0,1.25,10.059,10,10,0,0,0,9.789,8,9.848,9.848,0,0,0,2.012-.2,10,10,0,0,0,7.8-11.8,66.341,66.341,0,0,1-.918-7.73,36.87,36.87,0,0,1,29.066,29.586c.188,1.012.324,2.039.418,3.141a36.575,36.575,0,0,1-30.211,39.227c-1.016.176-2.039.32-3.086.41h0c-.73.063-1.457.105-2.184.125a36.235,36.235,0,0,1-27.148-11c-.437-.449-.867-.906-1.289-1.379v0a36.588,36.588,0,0,1,14.508-58.43ZM21.5,255.121,250.355,144.8c.18.152.367.3.551.449.336.281.68.563,1.027.836.418.336.844.664,1.27.984.352.262.7.523,1.059.777.438.313.883.621,1.328.922.359.242.719.48,1.082.715.457.293.922.578,1.387.855.367.223.73.441,1.1.652.477.273.961.535,1.445.793.371.2.738.4,1.109.586.508.254,1.016.5,1.527.734.367.172.727.348,1.094.512.543.238,1.09.461,1.641.684.344.141.688.289,1.039.426.613.234,1.23.449,1.852.664.293.1.582.211.875.309.848.277,1.7.531,2.566.77.07.02.141.043.211.063q1.418.387,2.852.7c.2.043.406.074.605.117.75.152,1.5.3,2.254.426.316.051.637.086.957.133.645.1,1.285.191,1.93.262.367.043.734.066,1.1.1.6.055,1.207.109,1.813.145.391.023.785.031,1.18.047.582.023,1.164.043,1.746.047.133,0,.262.012.391.012.414,0,.836-.02,1.254-.027.313-.008.625-.008.941-.02.852-.035,1.707-.086,2.559-.156.027,0,.055,0,.082-.008q1.436-.123,2.848-.32c.316-.043.629-.1.941-.148.621-.1,1.246-.191,1.859-.309.371-.066.73-.156,1.1-.23.555-.117,1.105-.227,1.652-.359.387-.094.77-.2,1.156-.3.512-.137,1.027-.266,1.535-.414.4-.117.785-.25,1.176-.375.488-.156.98-.3,1.461-.473.395-.137.781-.289,1.172-.437.469-.176.941-.344,1.406-.535.387-.156.77-.328,1.156-.5.453-.191.906-.387,1.352-.59.387-.18.762-.371,1.141-.555.438-.215.875-.426,1.3-.652.375-.2.746-.4,1.117-.609.418-.23.84-.461,1.254-.7.367-.215.727-.441,1.09-.664.406-.25.813-.5,1.211-.762.355-.23.707-.473,1.055-.711.391-.27.785-.539,1.168-.816.344-.246.684-.5,1.023-.762.375-.285.75-.57,1.121-.863.332-.266.656-.539.984-.809.363-.3.723-.605,1.074-.914.32-.281.633-.566.949-.855.344-.316.688-.637,1.027-.961.3-.3.605-.6.906-.9.328-.332.656-.668.977-1.008.293-.309.578-.625.863-.941.316-.348.625-.7.93-1.051.277-.324.551-.648.82-.98.3-.359.59-.723.875-1.094.266-.336.523-.672.777-1.016.281-.375.555-.754.824-1.137.246-.348.488-.7.727-1.047.262-.391.516-.781.77-1.18.23-.355.457-.719.68-1.082.242-.4.48-.8.715-1.215.211-.367.422-.738.625-1.113.227-.414.441-.832.656-1.25.2-.379.391-.758.578-1.145.2-.422.4-.852.6-1.281.176-.391.352-.777.52-1.172.188-.434.363-.875.539-1.316.156-.4.316-.793.465-1.2.168-.445.32-.9.477-1.352.137-.4.281-.809.41-1.215.145-.457.277-.918.41-1.379.121-.414.242-.824.352-1.238.125-.465.234-.937.348-1.41.1-.418.2-.832.289-1.25.1-.48.191-.961.281-1.441.078-.422.16-.84.23-1.266.078-.488.141-.98.207-1.473.059-.426.125-.844.172-1.27.055-.5.094-1.008.137-1.512.035-.422.078-.844.105-1.27.031-.516.043-1.031.063-1.551.016-.422.039-.84.043-1.262.008-.535-.008-1.066-.016-1.6,0-.414,0-.824-.016-1.238,0-.031,0-.062,0-.094L377.859,83.34a55.84,55.84,0,0,1,44.48-1.707c35.836,14.035,76.82,41.191,68.582,90.844,0,.027-.008.051-.012.078-.09.539-.2,1.086-.3,1.629-.078.414-.148.828-.23,1.246-.121.609-.266,1.23-.4,1.844-.078.355-.145.7-.23,1.059-.172.734-.363,1.477-.555,2.219-.062.242-.113.48-.18.719q-.393,1.482-.84,2.973a12.351,12.351,0,0,1-9.141,8.484c-.289.066-.582.121-.875.164l-98.18,14.469a10,10,0,0,0-7.234,14.84,81.609,81.609,0,0,1,10.66,40.316V282.2a12.994,12.994,0,0,1-13.488,13c-6.9-.246-12.512-6.32-12.512-13.547v-1.691a62.769,62.769,0,0,0-30.937-54.043c-.82-.48-1.66-.926-2.5-1.359-.191-.094-.379-.191-.57-.285-.836-.41-1.676-.8-2.531-1.16l-.379-.152q-1.16-.475-2.344-.891c-.184-.062-.367-.133-.555-.2-.867-.293-1.738-.559-2.621-.8-.191-.055-.383-.1-.574-.152-.8-.207-1.6-.4-2.41-.566-.141-.027-.281-.062-.426-.09-.9-.18-1.8-.328-2.715-.453-.215-.031-.434-.059-.652-.086-.918-.113-1.832-.211-2.754-.273-.023,0-.047,0-.066,0-.93-.062-1.863-.086-2.793-.094-.117,0-.238-.012-.355-.012-.172,0-.34,0-.512.008-.238,0-.48.008-.719.012-.4.012-.809.027-1.211.051-.234.012-.469.02-.707.039-.43.027-.855.063-1.285.105-.2.02-.41.031-.613.055-.629.066-1.258.145-1.883.238L22.98,259.973a4.11,4.11,0,0,1-.59.043h-.152a2.635,2.635,0,0,1-.457-.051.258.258,0,0,1-.059-.02,1.666,1.666,0,0,1-.332-.121.7.7,0,0,1-.094-.047,1.734,1.734,0,0,1-.3-.2c0-.008-.012-.012-.016-.016l-.422-.836-.516-1.016A2.215,2.215,0,0,1,21.5,255.121Zm276.711-15.492a27.9,27.9,0,0,1,18.129,3.527,42.559,42.559,0,0,1,20.3,28.816L202.43,290.613a10,10,0,0,0,1.363,19.906,9.818,9.818,0,0,0,1.387-.1l133.77-18.578a32.9,32.9,0,0,0,30.262,23.336c.41.016.816.02,1.227.02.078,0,.156,0,.234,0,.258,0,.512-.012.766-.02.293-.008.586-.016.875-.035.254-.012.508-.031.762-.051.289-.023.582-.047.871-.078.246-.027.5-.059.742-.09.293-.035.582-.074.871-.121.246-.039.484-.078.727-.121.293-.055.582-.109.871-.168.238-.047.473-.1.707-.156.293-.066.582-.137.871-.211.23-.059.457-.121.688-.184q.434-.123.867-.258c.223-.07.445-.141.668-.215.289-.1.574-.2.859-.3.215-.082.434-.16.648-.242.285-.113.57-.23.852-.352.211-.09.422-.176.629-.27.281-.129.563-.266.844-.4.2-.1.406-.2.605-.3.281-.141.555-.293.832-.445.2-.105.391-.211.586-.324.277-.156.547-.328.82-.492.188-.117.375-.227.563-.348.273-.176.543-.359.813-.543.176-.125.355-.242.531-.367.273-.2.539-.4.809-.605.164-.125.332-.246.5-.375.289-.23.574-.473.855-.711.137-.113.273-.223.406-.336.41-.363.816-.734,1.215-1.117a32.724,32.724,0,0,0,10.074-23.062l80.039-11.113-2.559,34.07a7.167,7.167,0,0,1-.629,2.465,7.418,7.418,0,0,1-3.383,3.547,7.317,7.317,0,0,1-2.437.742l-270.5,33.125L82.973,360.539a14.346,14.346,0,0,1-12.926-5.3,14,14,0,0,1-1.57-2.414L57.34,330.957l67.719-9.4a10,10,0,1,0-2.75-19.809L47.738,312.1,30.9,279.023Zm0,0"/>
    <path id="Path_45" data-name="Path 45" d="M191.75,219.371a9.976,9.976,0,0,0,7.3-3.164l15.336-16.375a10,10,0,1,0-14.6-13.672l-15.336,16.375a10,10,0,0,0,7.3,16.836Zm0,0"/>
    <path id="Path_46" data-name="Path 46" d="M301.59,208.184a9.976,9.976,0,0,0,7.3-3.164l15.336-16.375a10,10,0,1,0-14.6-13.672l-15.336,16.375a10,10,0,0,0,7.3,16.836Zm0,0"/>
    <path id="Path_47" data-name="Path 47" d="M432.934,180.1a9.985,9.985,0,0,0,7.3-3.164l15.332-16.375a10,10,0,1,0-14.6-13.672l-15.336,16.375a10,10,0,0,0,7.3,16.836Zm0,0"/>
    <path id="Path_48" data-name="Path 48" d="M377.809,146.336a9.97,9.97,0,0,0,7.3-3.164L400.445,126.8a10,10,0,1,0-14.6-13.672L370.512,129.5a10,10,0,0,0,7.3,16.836Zm0,0"/>
    <path id="Path_49" data-name="Path 49" d="M163.652,316.094h.023a10.012,10.012,0,1,0-.023,0Zm0,0"/>
  </g>
</svg>
