<svg xmlns="http://www.w3.org/2000/svg" viewBox="0 0 512 454.193">
  <defs>
    <style>
      .cls-1 {
        fill: #f5dcb4;
      }

      .cls-2 {
        fill: #965a50;
      }

      .cls-3 {
        fill: #4b3f4e;
      }

      .cls-4 {
        fill: #5d5360;
      }

      .cls-5 {
        fill: #fff;
      }

      .cls-6 {
        fill: #824641;
      }

      .cls-7 {
        fill: #e7c9a5;
      }

      .cls-8 {
        fill: #bc8e78;
      }

      .cls-9 {
        fill: #ff8087;
      }

      .cls-10 {
        fill: #e6646e;
      }

      .cls-11 {
        fill: #d4af91;
      }
    </style>
  </defs>
  <g id="dog" transform="translate(0 -28.903)">
    <path id="Path_3" data-name="Path 3" class="cls-1" d="M437.677,45.419H355.1c-29.935,11.871-36.571-8.258-99.1-8.258s-69.161,20.129-99.1,8.258H74.323L63.312,252.9c6.882,81.548,57.462,125.935,97.377,142.107H351.312c39.914-16.172,90.495-60.559,97.377-142.107Z"/>
    <path id="Path_4" data-name="Path 4" class="cls-2" d="M355.1,45.419C448.078,73.25,397.46,216.774,457.33,278.813c8.6,8.906,23.781,4.95,27.368-6.895,4.74-15.651,9.474-40.411,8.721-75.789C492.387,147.613,512,144.517,512,144.517S487.226,28.9,412.9,28.9C388.129,28.9,355.1,45.419,355.1,45.419Z"/>
    <path id="Path_5" data-name="Path 5" class="cls-3" d="M169.29,260.129h0a28.988,28.988,0,0,1-28.9-28.9V214.71a28.988,28.988,0,0,1,28.9-28.9h0a28.988,28.988,0,0,1,28.9,28.9v16.516A28.986,28.986,0,0,1,169.29,260.129Z"/>
    <path id="Path_6" data-name="Path 6" class="cls-4" d="M169.29,185.806a28.41,28.41,0,0,0-4.129.419V227.1a16.516,16.516,0,1,0,33.032,0V214.71A28.988,28.988,0,0,0,169.29,185.806Z"/>
    <circle id="Ellipse_3" data-name="Ellipse 3" class="cls-5" cx="12.387" cy="12.387" r="12.387" transform="translate(156.903 194.064)"/>
    <path id="Path_7" data-name="Path 7" class="cls-3" d="M342.71,260.129h0a28.988,28.988,0,0,1-28.9-28.9V214.71a28.988,28.988,0,0,1,28.9-28.9h0a28.988,28.988,0,0,1,28.9,28.9v16.516A28.988,28.988,0,0,1,342.71,260.129Z"/>
    <path id="Path_8" data-name="Path 8" class="cls-4" d="M342.71,185.806a28.41,28.41,0,0,0-4.129.419V227.1a16.516,16.516,0,1,0,33.032,0V214.71A28.99,28.99,0,0,0,342.71,185.806Z"/>
    <circle id="Ellipse_4" data-name="Ellipse 4" class="cls-5" cx="12.387" cy="12.387" r="12.387" transform="translate(330.323 194.064)"/>
    <path id="Path_9" data-name="Path 9" class="cls-6" d="M457.33,278.814c8.6,8.906,23.781,4.95,27.368-6.9a203.033,203.033,0,0,0,7.08-36.313c-16.234-8.092-30.092-33.91-38.617-77.669C437.677,78.452,416,34.065,355.1,45.419,448.078,73.25,397.46,216.775,457.33,278.814Z"/>
    <path id="Path_10" data-name="Path 10" class="cls-7" d="M160.689,395.011H199.83S131.1,348.9,119.743,267.355C97.654,108.712,139.7,61.247,176.067,49.135c-5.761.195-11.745-.774-19.163-3.715H74.323L63.312,252.9C70.194,334.452,120.774,378.839,160.689,395.011Z"/>
    <path id="Path_11" data-name="Path 11" class="cls-2" d="M156.9,45.419C63.922,73.25,114.541,216.775,54.67,278.813c-8.6,8.906-23.781,4.95-27.368-6.895-4.74-15.651-9.474-40.411-8.721-75.789C19.613,147.613,0,144.517,0,144.517S24.774,28.9,99.1,28.9C123.871,28.9,156.9,45.419,156.9,45.419Z"/>
    <path id="Path_12" data-name="Path 12" class="cls-6" d="M154.139,44.1c-8.38-3.888-34.516-15.2-55.042-15.2C24.774,28.9,0,144.517,0,144.517s19.613,3.1,18.581,51.613c-.014.648,0,1.231,0,1.872C66.1,17.715,139.119,37.773,154.139,44.1Z"/>
    <ellipse id="Ellipse_5" data-name="Ellipse 5" class="cls-8" cx="90.84" cy="66.06" rx="90.84" ry="66.06" transform="translate(165.16 334.46)"/>
    <path id="Path_13" data-name="Path 13" class="cls-9" d="M214.71,400.516v41.29a41.29,41.29,0,1,0,82.58,0v-41.29Z"/>
    <path id="Path_14" data-name="Path 14" class="cls-10" d="M214.71,432.768a90.927,90.927,0,0,0,33.032-10.622v11.4a8.258,8.258,0,0,0,16.516,0V422.041a89.141,89.141,0,0,0,33.032,10.73V400.515H214.71Z"/>
    <path id="Path_15" data-name="Path 15" class="cls-11" d="M309.677,326.194H202.323c-34.206,0-61.935,20.335-61.935,45.419s27.73,45.419,61.935,45.419c17.225,0,32.782-5.169,43.995-13.5a16.4,16.4,0,0,1,19.364,0c11.213,8.329,26.77,13.5,43.995,13.5,34.206,0,61.935-20.335,61.935-45.419S343.883,326.194,309.677,326.194Z"/>
    <path id="Path_16" data-name="Path 16" class="cls-4" d="M256,293.161c27.365,0,49.548,14.789,49.548,33.032,0,17.594-20.824,26.858-35.853,33.708a32.981,32.981,0,0,1-27.392,0c-15.029-6.85-35.853-16.114-35.853-33.708C206.452,307.951,228.635,293.161,256,293.161Z"/>
    <path id="Path_17" data-name="Path 17" class="cls-3" d="M230.968,317.161c-1.155-10.393,6.166-21.507,6.166-21.507-18,4.949-30.682,16.751-30.682,30.539,0,17.593,20.824,26.857,35.853,33.708a32.988,32.988,0,0,0,27.392,0c3.232-1.473,6.732-3.069,10.235-4.824C259.613,351.484,233.29,338.065,230.968,317.161Z"/>
  </g>
</svg>
