<svg xmlns="http://www.w3.org/2000/svg" viewBox="0 0 462.2 241.42">
  <defs>
    <style>
      .cls-1 {
        fill: #008db3;
      }

      .cls-2 {
        fill: #ccc;
      }

      .cls-3 {
        fill: #666;
      }

      .cls-4 {
        fill: #e6e6e6;
      }

      .cls-5 {
        fill: #76cdce;
      }

      .cls-6 {
        fill: #fff;
      }

      .cls-7 {
        fill: #96e0de;
      }
    </style>
  </defs>
  <g id="car" transform="translate(0 -110.39)">
    <path id="Path_76" data-name="Path 76" class="cls-1" d="M449.557,235.01a50.2,50.2,0,0,0-40.51-30.23l-70.54-8.06-37.63-61.16a52.871,52.871,0,0,0-45.03-25.17h-121.5a70.35,70.35,0,0,0-67.83,51.68l-.95,3.45a57.229,57.229,0,0,1-14.62,25.21,57.354,57.354,0,0,1-25.12,14.78,24.229,24.229,0,0,0-17.66,23.31V296.7l38.41-8.983a53.76,53.76,0,0,1,95.93-5.49,52.086,52.086,0,0,1,2.75,5.49h163.08a50.883,50.883,0,0,1,2.71-5.43,53.771,53.771,0,0,1,93.22-.06,52.086,52.086,0,0,1,2.75,5.49h42.82l.27.03,3.12-27.4c.13-1.12.22-2.23.27-3.34A49.953,49.953,0,0,0,449.557,235.01Z"/>
    <path id="Path_77" data-name="Path 77" class="cls-2" d="M462.2,299.792h0a12.048,12.048,0,0,1-12.048,12.048h-38.8c.05-.92.08-1.85.08-2.78a53.552,53.552,0,0,0-4.42-21.34l43.142.024A12.047,12.047,0,0,1,462.2,299.792Z"/>
    <path id="Path_78" data-name="Path 78" class="cls-3" d="M400.437,309.06c0,.93-.03,1.86-.09,2.78a42.756,42.756,0,0,1-85.33,0c-.06-.92-.09-1.85-.09-2.78a42.755,42.755,0,1,1,85.51,0Zm-25.22,0a17.535,17.535,0,1,0-17.53,17.54A17.553,17.553,0,0,0,375.217,309.06Z"/>
    <path id="Path_79" data-name="Path 79" class="cls-4" d="M357.687,291.52a17.54,17.54,0,1,1-17.54,17.54A17.553,17.553,0,0,1,357.687,291.52Z"/>
    <path id="Path_80" data-name="Path 80" class="cls-2" d="M303.927,309.06c0,.93.03,1.87.08,2.78H149.6c.05-.93.08-1.86.08-2.78a53.552,53.552,0,0,0-4.42-21.34h163.08A53.823,53.823,0,0,0,303.927,309.06Z"/>
    <path id="Path_81" data-name="Path 81" class="cls-5" d="M115.967,138.39v58.33H82.5s3.9-15.83,6.37-24.79l.95-3.45a45.021,45.021,0,0,1,1.82-5.32A46.3,46.3,0,0,1,115.967,138.39Z"/>
    <path id="Path_82" data-name="Path 82" class="cls-5" d="M200.027,134.55v62.17h-69.06V134.68c1.12-.09,2.25-.13,3.38-.13Z"/>
    <path id="Path_83" data-name="Path 83" class="cls-5" d="M310.137,196.72h-95.11V134.55h40.82a28.9,28.9,0,0,1,24.45,13.67Z"/>
    <path id="Path_84" data-name="Path 84" class="cls-3" d="M138.587,311.84a42.756,42.756,0,0,1-85.33,0c-.06-.92-.09-1.85-.09-2.78a42.755,42.755,0,1,1,85.51,0C138.677,309.99,138.647,310.92,138.587,311.84Zm-25.12-2.78a17.54,17.54,0,1,0-17.54,17.54A17.562,17.562,0,0,0,113.467,309.06Z"/>
    <path id="Path_85" data-name="Path 85" class="cls-4" d="M95.927,291.52a17.54,17.54,0,1,1-17.54,17.54A17.562,17.562,0,0,1,95.927,291.52Z"/>
    <path id="Path_86" data-name="Path 86" class="cls-2" d="M42.167,309.06c0,.93.03,1.86.08,2.78H12.06A12.059,12.059,0,0,1,0,299.78H0a12.059,12.059,0,0,1,12.06-12.06H46.577A53.751,53.751,0,0,0,42.167,309.06Z"/>
    <path id="Path_87" data-name="Path 87" class="cls-2" d="M256.236,229.631h-15.76a6,6,0,0,1,0-12h15.76a6,6,0,0,1,0,12Z"/>
    <path id="Path_88" data-name="Path 88" class="cls-2" d="M148.017,229.631h-15.76a6,6,0,1,1,0-12h15.76a6,6,0,0,1,0,12Z"/>
    <path id="Path_89" data-name="Path 89" class="cls-6" d="M453.5,257.01h-12.05a22,22,0,0,1-22-22h30.11C452.867,242.245,454.367,249.37,453.5,257.01Z"/>
    <path id="Path_90" data-name="Path 90" class="cls-7" d="M200.027,134.68v62.04H193l-62.03-62.04Z"/>
    <path id="Path_91" data-name="Path 91" class="cls-7" d="M310.137,196.72H277.2l-62.17-62.17h40.82a28.9,28.9,0,0,1,24.45,13.67Z"/>
    <path id="Path_92" data-name="Path 92" class="cls-7" d="M115.967,138.39v49.1l-24.33-24.33A46.3,46.3,0,0,1,115.967,138.39Z"/>
  </g>
</svg>
