<svg xmlns="http://www.w3.org/2000/svg" viewBox="0 0 512 264.828">
  <defs>
    <style>
      .cls-1 {
        fill: #504b5a;
      }

      .cls-2 {
        fill: #dcdbde;
      }

      .cls-3 {
        fill: #ff6464;
      }

      .cls-4 {
        fill: #736f7b;
      }

      .cls-5 {
        fill: #625d6b;
      }

      .cls-6 {
        fill: #d2555a;
      }

      .cls-7 {
        fill: #a7a5ac;
      }
    </style>
  </defs>
  <g id="motor-sports" transform="translate(0 -123.586)">
    <path id="Path_50" data-name="Path 50" class="cls-1" d="M397.241,203.034l-35.31,17.656-17.655-52.966h35.31Z"/>
    <ellipse id="Ellipse_10" data-name="Ellipse 10" class="cls-2" cx="17.655" cy="22.069" rx="17.655" ry="22.069" transform="translate(397.242 158.897)"/>
    <path id="Path_51" data-name="Path 51" class="cls-3" d="M379.586,150.069h22.069A13.241,13.241,0,0,1,414.9,163.31v35.31a13.241,13.241,0,0,1-13.241,13.241h-4.414Z"/>
    <path id="Path_52" data-name="Path 52" class="cls-4" d="M326.621,203.034H158.9L185.379,256l-35.31,26.483-8.828,26.483,70.621,26.482h70.621l17.655-26.482h8.828l17.655-61.794Z"/>
    <path id="Path_53" data-name="Path 53" class="cls-1" d="M216.276,229.517H322.207a13.241,13.241,0,0,0,13.241-13.241h0a13.241,13.241,0,0,0-13.241-13.241H216.276a13.241,13.241,0,0,0-13.241,13.241h0A13.241,13.241,0,0,0,216.276,229.517Z"/>
    <path id="Path_54" data-name="Path 54" class="cls-5" d="M264.828,229.517l5.763,17.289a17.654,17.654,0,0,0,12.467,11.545l25.908,6.476,13.241-35.31H264.828Z"/>
    <path id="Path_55" data-name="Path 55" class="cls-6" d="M361.588,183.023l7.761,39.346a17.65,17.65,0,0,1-2.632,13.209l-43.976,65.964a17.654,17.654,0,0,1-13.858,7.842l-8.745.413V291.31l26.483-79.448Z"/>
    <path id="Path_56" data-name="Path 56" class="cls-1" d="M79.448,229.517A79.449,79.449,0,1,0,158.9,308.966,79.449,79.449,0,0,0,79.448,229.517Zm0,132.414a52.966,52.966,0,1,1,52.966-52.966A52.966,52.966,0,0,1,79.448,361.931Z"/>
    <circle id="Ellipse_11" data-name="Ellipse 11" class="cls-7" cx="35.31" cy="35.31" r="35.31" transform="translate(44.138 273.656)"/>
    <g id="Group_6" data-name="Group 6">
      <circle id="Ellipse_12" data-name="Ellipse 12" class="cls-1" cx="17.655" cy="17.655" r="17.655" transform="translate(61.793 291.311)"/>
      <path id="Path_57" data-name="Path 57" class="cls-1" d="M432.552,229.517A79.448,79.448,0,1,0,512,308.966,79.449,79.449,0,0,0,432.552,229.517Zm0,132.414a52.966,52.966,0,1,1,52.966-52.966A52.966,52.966,0,0,1,432.552,361.931Z"/>
    </g>
    <circle id="Ellipse_13" data-name="Ellipse 13" class="cls-7" cx="35.31" cy="35.31" r="35.31" transform="translate(397.242 273.656)"/>
    <circle id="Ellipse_14" data-name="Ellipse 14" class="cls-1" cx="17.655" cy="17.655" r="17.655" transform="translate(414.897 291.311)"/>
    <g id="Group_7" data-name="Group 7">
      <path id="Path_58" data-name="Path 58" class="cls-5" d="M432.552,317.8a8.846,8.846,0,0,1-8.337-5.913L365.526,144.2a4.412,4.412,0,0,0-4.163-2.957H344.276a8.828,8.828,0,0,1,0-17.656h17.086a22.094,22.094,0,0,1,20.828,14.772l58.7,167.69a8.845,8.845,0,0,1-8.336,11.75Z"/>
      <path id="Path_59" data-name="Path 59" class="cls-5" d="M79.457,317.793a8.828,8.828,0,0,1-3.706-16.844L190.51,247.983a8.829,8.829,0,0,1,7.4,16.034L83.147,316.983A8.8,8.8,0,0,1,79.457,317.793Z"/>
      <path id="Path_60" data-name="Path 60" class="cls-5" d="M247.172,203.034l-65.324,21.774a44.65,44.65,0,0,1-28.248,0l-77.089-25.7A15.515,15.515,0,0,1,66.7,179.488h0a15.514,15.514,0,0,1,16.262-10.531l164.212,16.422v17.655Z"/>
    </g>
    <path id="Path_61" data-name="Path 61" class="cls-3" d="M361.588,183.023h0a24.768,24.768,0,0,1-24.43,28.839H255.005a18.45,18.45,0,0,1-16.5-26.7l.039-.076a18.445,18.445,0,0,1,13.7-9.984l81.154-12.486A24.767,24.767,0,0,1,361.588,183.023Z"/>
    <path id="Path_62" data-name="Path 62" class="cls-5" d="M274.492,344.276H224.665a79.277,79.277,0,0,1-27.9-5.056l-58.63-21.987a8.831,8.831,0,0,1,6.207-16.536l58.63,21.987a61.514,61.514,0,0,0,21.689,3.935h49.827a16.82,16.82,0,0,0,5.31-32.78l-35.423-11.81a8.828,8.828,0,0,1,5.586-16.75l35.423,11.81a34.478,34.478,0,0,1-10.9,67.187Z"/>
    <circle id="Ellipse_15" data-name="Ellipse 15" class="cls-1" cx="22.069" cy="22.069" r="22.069" transform="translate(211.862 273.655)"/>
    <circle id="Ellipse_16" data-name="Ellipse 16" class="cls-7" cx="13.241" cy="13.241" r="13.241" transform="translate(211.862 229.518)"/>
    <circle id="Ellipse_17" data-name="Ellipse 17" class="cls-6" cx="15.448" cy="15.448" r="15.448" transform="translate(322.207 172.138)"/>
  </g>
</svg>
